<!-- sample rectangle -->
<svg width="48" height="48" viewBox="0 0 48 48" fill="none" xmlns="http://www.w3.org/2000/svg">
<path d="M22.9972 27.6146C23.111 30.6764 19.64 33.1136 16.5139 33.1792C12.6045 33.2185 9.31271 29.941 8.96336 25.3335C8.84277 23.7401 9.91337 22.4982 11.4178 22.1955C12.8716 21.9035 14.2746 22.7199 14.7874 24.1977C15.077 25.032 15.2573 25.9127 15.5797 26.7315C16.0518 27.9304 16.932 28.2665 18.0037 27.6444C18.7689 27.1999 19.4755 26.6373 20.2294 26.1749C20.7219 25.8722 21.3147 25.7876 21.8579 25.9664C22.4033 26.1463 22.9589 26.5837 22.9972 27.6158V27.6146Z" fill="#FAFAFA" fill-opacity="0.5"/>
<path d="M11.5166 22.6855C12.7129 22.4454 13.8805 23.1079 14.3154 24.3613C14.4544 24.7615 14.5667 25.1731 14.6904 25.6074C14.8122 26.0348 14.9433 26.4809 15.1143 26.915C15.3799 27.5895 15.7974 28.1149 16.3896 28.3389C16.9888 28.5654 17.6379 28.4353 18.2549 28.0771C18.6567 27.8437 19.0392 27.5808 19.4053 27.3271C19.7763 27.07 20.1289 26.8238 20.4912 26.6016V26.6006C20.8675 26.3693 21.3079 26.3121 21.7012 26.4414C21.9085 26.5098 22.0929 26.6189 22.2295 26.7871C22.3461 26.9308 22.4522 27.1464 22.4873 27.4824L22.4971 27.6348C22.5457 28.9593 21.8207 30.1956 20.6572 31.1309C19.4954 32.0648 17.9537 32.647 16.5088 32.6787C12.9122 32.7149 9.79538 29.6928 9.46191 25.2959C9.36231 23.9797 10.2336 22.9437 11.5166 22.6855Z" stroke="white" stroke-opacity="0.5"/>
<path d="M37.0002 42.4382C36.2677 42.0353 35.4372 41.5801 34.5762 41.1188C33.3782 40.4776 32.24 41.0068 31.4117 41.6778C30.9756 42.0317 30.7344 42.5907 30.7604 43.1711C30.7716 43.4202 30.7795 43.6669 30.7626 43.9065C30.6927 44.8825 31.1706 45.0637 31.9729 44.8134C33.6994 44.2759 35.436 43.7754 37.1637 43.245C37.167 43.245 37.1704 43.2426 37.1738 43.2426C37.176 43.2426 37.1783 43.2414 37.1806 43.2402C37.4736 43.1449 37.4972 42.7123 37.2256 42.5621C37.1513 42.5216 37.0757 42.4799 36.9991 42.4382H37.0002Z" fill="#FAFAFA" fill-opacity="0.5"/>
<path d="M31.7266 42.0664C32.4556 41.4758 33.3016 41.1116 34.167 41.4766L34.3398 41.5596C35.1834 42.0115 35.9989 42.4571 36.7217 42.8545C35.1062 43.3471 33.444 43.8316 31.8242 44.3359C31.6493 44.3905 31.5182 44.4133 31.4258 44.415C31.3815 44.4159 31.352 44.4114 31.334 44.4072C31.3254 44.4052 31.3197 44.4027 31.3164 44.4014C31.3132 44.4001 31.3115 44.3994 31.3115 44.3994L31.3096 44.3965C31.306 44.3915 31.2963 44.3767 31.2861 44.3447C31.2644 44.2759 31.2469 44.1502 31.2617 43.9424V43.9414C31.2808 43.6705 31.2711 43.3984 31.2598 43.1484C31.243 42.7713 31.3788 42.4155 31.6182 42.166L31.7266 42.0664Z" stroke="white" stroke-opacity="0.5"/>
<path d="M34.0655 2.36505C33.617 2.0659 33.1369 2.6916 33.5077 3.09086C33.5077 3.09086 35.4596 5.82248 35.6162 8.45995C35.703 9.93898 34.9119 13.4298 29.9206 13.8433C29.8812 13.8469 29.8418 13.8481 29.8023 13.8481C29.0292 13.8481 28.3733 13.2188 28.3125 12.3893C28.2483 11.5181 28.8636 10.7566 29.6874 10.6886C32.5554 10.4503 32.605 8.97719 32.6264 8.34792C32.6501 7.64356 32.3695 6.92252 31.8556 6.37071C31.8556 6.37071 30.0209 4.66643 30.3624 1.57488C30.4007 1.22806 30.2091 0.895551 29.897 0.783521C29.6006 0.67745 29.302 0.589256 28.9988 0.524899C21.1789 -1.12695 14.3147 1.17205 8.37684 6.68654C7.0369 7.93079 6.32017 9.5874 6.12971 11.4848C5.98434 12.928 5.60005 13.2605 4.17446 13.2605C2.30261 13.2605 1.96227 13.86 2.81424 15.6585C2.94046 15.9242 3.09598 16.1745 3.21431 16.4427C3.60198 17.3246 3.36645 18.017 2.59674 18.5021C2.25415 18.7178 1.86761 18.8561 1.51375 19.0539C0.136622 19.8238 -0.386281 21.4685 0.302283 22.8379C1.01 24.2466 2.53251 24.7817 3.90287 24.0833C5.1797 23.4326 5.90094 22.2968 6.33256 20.9119C7.08424 18.4997 9.42715 17.0422 11.5841 18.0051C13.394 18.8132 15.1464 18.6868 17.0002 18.5045C17.327 18.4723 17.6482 18.6118 17.859 18.8787C17.8871 18.9145 17.9164 18.9502 17.9469 18.9836C19.1392 20.347 20.4622 21.4328 21.9644 22.1216C23.3934 22.7771 24.9846 22.9333 26.5116 22.6103C27.2227 22.4601 28.0386 22.36 28.9639 22.3087C32.063 22.1371 34.9491 22.5149 37.5444 23.4326C37.9907 23.5899 39.5436 24.3968 39.7194 24.4886C40.2705 24.7746 41.0684 24.2037 41.3422 23.8176C41.3422 23.8176 43.3076 21.7236 44.208 21.1038C44.412 20.9632 44.6092 20.8118 44.7884 20.6366C45.2629 20.1742 46.0078 19.3221 46.0078 18.5319C46.0078 16.9218 45.2753 15.3879 45.1321 13.7945C44.9361 11.6027 43.6874 10.4407 42.2111 8.98434C38.9328 5.40416 34.0689 2.36147 34.0689 2.36147L34.0655 2.36505ZM21.3074 7.26338C22.6473 5.76647 24.4121 5.11693 26.0282 5.5281C26.8317 5.7319 27.3264 6.58643 27.1337 7.43619C26.941 8.28594 26.133 8.80915 25.3295 8.60535C24.784 8.46829 24.0583 8.79366 23.4802 9.43961C22.8603 10.1321 22.3284 11.3298 22.6924 12.6158C23.248 14.5811 25.6315 16.1817 29.4034 17.1232C33.0299 18.029 35.8585 17.8097 37.5827 16.4892C37.5827 16.4892 38.8427 15.4845 39.2991 14.1079C39.458 13.6276 39.8614 13.276 40.3415 13.2296C41.5417 13.1128 42.3677 14.3522 41.9474 15.4749C41.5316 16.5845 40.7731 17.9312 39.3983 19.0062C37.8329 20.229 35.8303 20.8428 33.413 20.8428C31.9897 20.8428 30.4221 20.6307 28.7159 20.204C22.4907 18.6499 20.4453 15.7133 19.8255 13.5227C19.2158 11.3656 19.7826 8.96766 21.3074 7.26457V7.26338Z" fill="#FAFAFA" fill-opacity="0.5"/>
<path d="M8.7168 7.05273C14.5514 1.63414 21.2545 -0.599881 28.8945 1.01367C29.1722 1.07262 29.4496 1.15409 29.7285 1.25391C29.7999 1.27974 29.8807 1.37813 29.8652 1.51953C29.682 3.17855 30.0835 4.47617 30.5361 5.36035C30.7617 5.80095 30.9993 6.13908 31.1836 6.36914C31.2758 6.4842 31.3553 6.57233 31.4131 6.63379C31.442 6.66454 31.4661 6.68886 31.4834 6.70605C31.4855 6.70809 31.4874 6.71007 31.4893 6.71191L31.6416 6.89062C31.9256 7.26026 32.0909 7.69303 32.1221 8.11914L32.127 8.33105C32.1163 8.64417 32.0955 9.01895 31.8311 9.35645C31.5905 9.66337 31.0717 10.0288 29.8906 10.166L29.6455 10.1904C28.5232 10.2834 27.7312 11.3075 27.8135 12.4258C27.8919 13.4954 28.747 14.3477 29.8027 14.3477C29.8504 14.3476 29.9039 14.3458 29.9609 14.3408L29.9619 14.3418C32.5824 14.1247 34.1688 13.0878 35.0762 11.8467C35.9689 10.6254 36.164 9.26133 36.1152 8.43066C36.031 7.01246 35.4695 5.59848 34.9502 4.5625C34.6881 4.03955 34.4311 3.60146 34.2393 3.29395C34.1434 3.14022 34.0633 3.01863 34.0068 2.93457C34.0035 2.92961 34.0002 2.92462 33.9971 2.91992L34.1387 3.01465L34.1455 3.00684C34.2683 3.08712 34.4219 3.1874 34.6006 3.30762C35.1025 3.64528 35.8069 4.13291 36.6123 4.73145C38.2271 5.93146 40.2345 7.56591 41.8428 9.32227L41.8506 9.33105L41.8604 9.33984C43.3568 10.8162 44.4564 11.8566 44.6338 13.8389C44.7099 14.6859 44.9433 15.5157 45.1396 16.2812C45.3407 17.0654 45.5078 17.7969 45.5078 18.5322C45.5077 18.7814 45.3843 19.0919 45.1592 19.4307C44.9408 19.7593 44.6634 20.0601 44.4395 20.2783L44.4385 20.2793C44.3627 20.3533 44.2821 20.4239 44.1963 20.4922L43.9238 20.6924C43.4298 21.0326 42.6822 21.7445 42.085 22.3389C41.7798 22.6426 41.5028 22.926 41.3027 23.1338C41.2027 23.2377 41.1216 23.3226 41.0654 23.3818C41.0373 23.4114 41.0159 23.4353 41.001 23.4512C40.9936 23.459 40.9873 23.4646 40.9834 23.4688C40.9816 23.4707 40.9805 23.4726 40.9795 23.4736L40.9775 23.4756L40.9541 23.5L40.9346 23.5283C40.8483 23.6499 40.6441 23.838 40.4062 23.96C40.1548 24.0889 40.0093 24.0753 39.9502 24.0449H39.9512C39.862 23.9984 39.4266 23.7727 38.957 23.5381C38.616 23.3677 38.2315 23.1795 37.9512 23.0576L37.7109 22.9609C35.0459 22.0187 32.093 21.6348 28.9365 21.8096C28.2285 21.8488 27.5775 21.9163 26.9834 22.0137L26.4082 22.1211C25.0712 22.4039 23.6855 22.293 22.4238 21.7764L22.1729 21.667C20.9287 21.0965 19.8016 20.2329 18.7627 19.1377L18.3232 18.6543L18.3164 18.6465L18.252 18.5693H18.251C17.9387 18.1737 17.4538 17.9573 16.9512 18.0068C15.0939 18.1895 13.4642 18.2971 11.7881 17.5488C9.27278 16.4259 6.66619 18.1619 5.85547 20.7627C5.44782 22.0707 4.79169 23.069 3.67578 23.6377C2.63647 24.1674 1.49289 23.8373 0.867188 22.8252L0.749023 22.6133C0.185492 21.4926 0.604811 20.1348 1.75781 19.4902C1.91514 19.4023 2.07989 19.3277 2.27246 19.2373C2.36459 19.194 2.46199 19.147 2.56152 19.0957L2.86328 18.9248C3.31848 18.6379 3.66607 18.2575 3.81738 17.7695C3.9689 17.2808 3.89995 16.7601 3.67188 16.2412L3.56543 16.0176C3.5292 15.9463 3.49265 15.878 3.45801 15.8135L3.26562 15.4443C3.05986 15.01 2.94254 14.6795 2.89551 14.4316C2.84842 14.1833 2.88343 14.076 2.9082 14.0322C2.92911 13.9954 2.98739 13.9236 3.19531 13.8613C3.40875 13.7975 3.72546 13.7607 4.1748 13.7607C4.88799 13.7607 5.52029 13.6875 5.9668 13.2852C6.41353 12.8826 6.55405 12.2588 6.62695 11.5352C6.80753 9.73623 7.4815 8.19984 8.7168 7.05273ZM26.1504 5.04297C24.3134 4.5761 22.3677 5.32872 20.9346 6.92969L20.8076 7.07227V7.08105C19.2686 8.89813 18.705 11.3958 19.3447 13.6592C20.002 15.9816 22.0972 18.9116 28.0107 20.5361L28.5947 20.6895C30.332 21.1239 31.941 21.3428 33.4131 21.3428C35.7603 21.3428 37.7689 20.7833 39.3877 19.6377L39.7061 19.4004C40.989 18.3973 41.7656 17.1744 42.2334 16.1006L42.416 15.6504C42.9457 14.2357 41.9175 12.5734 40.293 12.7314C39.5922 12.7994 39.0375 13.3062 38.8242 13.9502C38.6256 14.5493 38.2442 15.0866 37.8945 15.4844C37.722 15.6806 37.5623 15.8371 37.4473 15.9434C37.3901 15.9961 37.3443 16.0362 37.3135 16.0625C37.2981 16.0756 37.2865 16.0859 37.2793 16.0918H37.2783C35.7396 17.2702 33.1061 17.5323 29.5244 16.6377C27.6746 16.1759 26.1942 15.5592 25.1201 14.8379C24.0453 14.1159 23.4091 13.3116 23.1738 12.4795C22.8694 11.4038 23.3117 10.3778 23.8525 9.77344C24.3782 9.18607 24.9264 9.01898 25.207 9.08887V9.08984C26.3058 9.36829 27.3716 8.64683 27.6211 7.54688C27.8686 6.45531 27.2388 5.31902 26.1504 5.04297Z" stroke="white" stroke-opacity="0.5"/>
<path d="M47.607 23.601C47.607 23.601 47.6025 23.5903 47.6002 23.5855L47.5946 23.5736C47.3929 23.1267 46.8542 22.9884 46.4789 23.2852C46.3764 23.3662 46.2727 23.4473 46.169 23.5295C45.3993 24.1338 44.5282 24.8167 43.6694 25.7892C42.8603 26.888 41.482 27.739 40.0384 27.739C39.4862 27.739 38.9239 27.615 38.3807 27.3314C37.8702 27.0656 36.803 26.5269 36.5708 26.4339C34.3338 25.645 31.8219 25.3208 29.1048 25.4722C28.5008 25.5055 27.9981 25.5604 27.5812 25.6247C26.6447 25.7701 26.1793 26.9297 26.7619 27.7187C26.7664 27.7247 26.7709 27.7306 26.7754 27.7378C26.7754 27.739 26.7777 27.7402 26.7788 27.7414C26.9501 27.9678 27.2115 28.0953 27.4854 28.1108C29.6322 28.2288 32.551 28.7115 35.1599 30.2501C36.9517 31.3061 38.6624 32.5765 40.1714 33.6968C40.8036 34.1664 41.5316 34.7063 42.2157 35.1806C42.8084 35.5918 43.5872 35.537 44.1236 35.0471L44.1349 35.0364C46.6085 32.7744 46.8925 29.5505 47.7783 26.5531C48.0656 25.5794 48.0183 24.5223 47.6059 23.5998L47.607 23.601Z" fill="#FAFAFA" fill-opacity="0.5"/>
<path d="M47.1465 23.7949L47.1455 23.7939V23.793L47.1387 23.7793C47.0647 23.6155 46.8977 23.5918 46.7891 23.6777C46.6823 23.7621 46.5841 23.8379 46.4795 23.9209L46.4775 23.9229C45.7104 24.5251 44.8762 25.1796 44.0547 26.1074C43.1683 27.2975 41.6604 28.2393 40.0381 28.2393C39.4093 28.2392 38.7673 28.0971 38.1494 27.7744L37.1484 27.2656C36.7995 27.0914 36.4901 26.9401 36.3867 26.8984C34.2249 26.139 31.786 25.8239 29.1328 25.9717C28.5436 26.0042 28.0567 26.0565 27.6572 26.1182L27.6582 26.1191C27.1125 26.2039 26.7952 26.9166 27.1611 27.418L27.1777 27.4395C27.2537 27.5399 27.3747 27.6035 27.5137 27.6113H27.5127C29.7007 27.7316 32.7092 28.2241 35.4141 29.8193C37.2324 30.8909 38.9642 32.1772 40.4697 33.2949V33.2959C41.1028 33.7661 41.8248 34.3007 42.501 34.7695C42.8998 35.0461 43.42 35.012 43.7861 34.6777L43.79 34.6738L43.7979 34.667C44.9489 33.6142 45.6023 32.3295 46.0781 30.9111C46.3167 30.1999 46.5087 29.4622 46.6982 28.7041C46.8865 27.9513 47.0736 27.1734 47.2988 26.4111C47.5548 25.5435 47.5098 24.6096 47.1494 23.8037L47.1758 23.7852M47.1465 23.7949L47.1484 23.7988M47.1465 23.7949L47.1484 23.7988M47.1465 23.7949C47.1478 23.7944 47.1545 23.7911 47.1895 23.7764L47.1758 23.7852M47.1484 23.7988L47.1758 23.7852M47.1484 23.7988L47.1758 23.7852M27.0996 27.3574C27.1015 27.359 27.1046 27.3629 27.1094 27.3672C27.1002 27.359 27.0939 27.3532 27.0918 27.3516C27.0945 27.3538 27.0978 27.3559 27.0996 27.3574Z" stroke="white" stroke-opacity="0.5"/>
<path d="M29.8816 33.7427C29.9008 33.7141 29.9143 33.6843 29.9718 33.639C30.373 33.3185 30.7066 33.4972 30.7077 34.03C30.7099 35.2122 30.7156 36.3945 30.702 37.5768V37.5863C30.6975 37.9677 31.0604 38.2287 31.3951 38.0893C32.7362 37.5315 34.2959 37.4218 35.9277 38.2954C36.8011 38.7638 37.6384 39.2239 38.3777 39.6291C39.0268 39.9854 39.7108 40.3608 40.3273 40.6886C40.6575 40.8638 41.0598 40.7363 41.2446 40.3978C41.3483 40.2059 41.4396 40.0283 41.5173 39.8639C41.8058 39.2584 41.6086 38.5219 41.0654 38.1631C40.2732 37.6388 39.4088 36.9976 38.4509 36.2861C37.0017 35.2099 35.3586 33.9894 33.702 33.0134C31.7152 31.8418 29.432 31.4235 27.6627 31.296C26.7307 31.228 25.828 31.6654 25.2747 32.4615C23.2293 35.4053 20.3308 36.4064 16.6998 35.8665C14.909 35.6008 13.2829 36.0691 11.8764 37.3241C10.2345 38.7888 10.115 39.2596 11.2386 41.1701C11.766 42.0663 11.7468 42.8124 11.1112 43.5942C10.9039 43.8493 10.7202 44.1377 10.5793 44.4392C9.98542 45.7073 10.4869 47.0695 11.7649 47.7083C12.8264 48.2387 14.3095 47.6082 14.7445 46.3842C14.9248 45.8753 14.9823 45.3128 15.0612 44.7693C15.3688 42.6372 16.0473 42.1557 17.9732 42.7278C19.3278 43.1306 20.1775 42.7814 20.5483 41.4549C21.2774 38.8508 22.9115 37.4409 25.3772 36.8986C27.2513 36.4863 28.7851 35.4375 29.8805 33.7415L29.8816 33.7427Z" fill="#FAFAFA" fill-opacity="0.5"/>
<path d="M27.626 31.7949H27.627C29.358 31.9197 31.5549 32.3279 33.4482 33.4443C35.0778 34.4045 36.6992 35.6084 38.1523 36.6875C39.1073 37.3968 39.9834 38.0468 40.7891 38.5801H40.79C41.117 38.796 41.2515 39.2594 41.0664 39.6484L41.0654 39.6504C40.9929 39.8038 40.9061 39.9722 40.8057 40.1582C40.7602 40.2414 40.6882 40.2724 40.623 40.2656L40.5615 40.2471C39.9487 39.9212 39.2678 39.5471 38.6182 39.1904L36.1641 37.8545C34.3826 36.9008 32.6657 37.0211 31.2109 37.624C31.2098 37.6226 31.2081 37.6213 31.207 37.6191C31.2049 37.6149 31.202 37.606 31.2021 37.5918V37.582C31.2157 36.3957 31.2103 35.2092 31.208 34.0293C31.2073 33.6916 31.101 33.2737 30.7246 33.0732C30.4519 32.928 30.1736 32.9671 29.9395 33.0752L29.8066 32.9346L29.4609 33.4707C28.4365 35.0568 27.0138 36.0264 25.2695 36.4102C23.9698 36.696 22.8589 37.2181 21.9727 38.0361C21.1409 38.804 20.5317 39.8096 20.1416 41.0654L20.0664 41.3203C19.9035 41.9032 19.6661 42.1695 19.416 42.2881C19.1496 42.4142 18.7424 42.4342 18.1162 42.248H18.1152C17.1452 41.96 16.2804 41.8634 15.623 42.3252C14.9832 42.7748 14.7198 43.6346 14.5664 44.6973C14.4932 45.2017 14.4456 45.6434 14.3281 46.0469L14.2734 46.2168C13.9288 47.1865 12.7548 47.6437 11.9883 47.2607C10.9408 46.737 10.5592 45.6615 11.0322 44.6514V44.6504C11.1548 44.3881 11.3162 44.1341 11.499 43.9092C11.8655 43.4583 12.0859 42.9775 12.1104 42.4482C12.1346 41.9241 11.9643 41.4163 11.6699 40.916H11.6689C11.0941 39.9384 10.9544 39.4985 11.0127 39.166C11.0406 39.0072 11.1234 38.8275 11.3164 38.5869C11.5131 38.3418 11.8013 38.061 12.209 37.6973C13.5044 36.5414 14.9818 36.1174 16.626 36.3613C18.5041 36.6406 20.2273 36.5263 21.7607 35.9375C23.2986 35.3469 24.6122 34.2918 25.6855 32.7471C26.1415 32.0911 26.8764 31.7404 27.626 31.7949Z" stroke="white" stroke-opacity="0.5"/>
</svg>
