<?xml version="1.0" encoding="UTF-8"?>
<svg id="Capa_2" data-name="Capa 2" xmlns="http://www.w3.org/2000/svg" viewBox="0 0 424.69 401.02">
  <defs>
    <style>
      .cls-1 {
        fill: #e51d4d;
      }
    </style>
  </defs>
  <g id="degrade_rojo" data-name="degrade rojo">
    <g>
      <path class="cls-1" d="M203.65,231.19c1.01,25.64-29.73,46.04-57.4,46.59-34.62.32-63.76-27.11-66.86-65.69-1.07-13.34,8.42-23.74,21.73-26.27,12.87-2.45,25.3,4.39,29.84,16.76,2.57,6.99,4.17,14.35,7.02,21.21,4.18,10.04,11.98,12.85,21.47,7.64,6.77-3.72,13.03-8.43,19.7-12.3,4.36-2.53,9.6-3.25,14.42-1.75s9.75,5.17,10.09,13.81Z"/>
      <path class="cls-1" d="M327.63,355.3c-6.49-3.37-13.84-7.19-21.46-11.05-10.6-5.37-20.69-.94-28.02,4.68-3.86,2.96-5.99,7.64-5.76,12.5.1,2.08.17,4.15.02,6.16-.62,8.18,3.61,9.69,10.71,7.6,15.28-4.5,30.66-8.69,45.96-13.13.03,0,.06-.02.08-.02.02,0,.04-.01.06-.02,2.59-.79,2.81-4.42.4-5.67-.66-.34-1.32-.69-2-1.04Z"/>
      <path class="cls-1" d="M301.65,19.79c-3.97-2.51-8.23,2.73-4.94,6.08,0,0,17.29,22.87,18.66,44.95.77,12.38-6.24,41.61-50.43,45.07-.35.03-.7.04-1.05.04-6.85,0-12.65-5.27-13.19-12.21-.57-7.29,4.88-13.67,12.17-14.24,25.4-1.99,25.83-14.33,26.02-19.6.21-5.9-2.28-11.94-6.82-16.55,0,0-16.24-14.27-13.22-40.15.34-2.91-1.35-5.69-4.12-6.62-2.62-.89-5.27-1.63-7.95-2.16-69.24-13.83-130.01,5.42-182.59,51.59-11.87,10.42-18.21,24.28-19.9,40.18-1.28,12.09-4.69,14.86-17.32,14.87-16.57,0-19.59,5.02-12.04,20.07,1.11,2.22,2.49,4.32,3.54,6.57,3.44,7.38,1.35,13.18-5.47,17.24-3.04,1.81-6.46,2.97-9.59,4.62-12.2,6.45-16.82,20.21-10.73,31.68,6.27,11.79,19.75,16.27,31.88,10.43,11.3-5.45,17.69-14.96,21.51-26.55,6.66-20.2,27.4-32.4,46.5-24.34,16.02,6.77,31.54,5.7,47.96,4.18,2.9-.27,5.74.9,7.61,3.14.25.3.51.59.77.88,10.56,11.42,22.27,20.5,35.57,26.28,12.65,5.49,26.74,6.79,40.27,4.09,6.3-1.26,13.52-2.1,21.71-2.53,27.44-1.44,52.99,1.72,75.98,9.41,3.95,1.32,17.7,8.08,19.25,8.84,4.87,2.4,11.95-2.38,14.36-5.62,0,0,17.41-17.53,25.37-22.72,1.81-1.18,3.55-2.45,5.14-3.91,4.2-3.87,10.8-11.01,10.8-17.62,0-13.48-6.49-26.32-7.75-39.67-1.73-18.35-12.8-28.08-25.86-40.27-29.03-29.98-72.09-55.45-72.09-55.45ZM188.68,60.81c11.86-12.53,27.49-17.97,41.8-14.53,7.11,1.71,11.5,8.86,9.79,15.97s-8.86,11.5-15.97,9.79c-4.83-1.15-11.26,1.58-16.37,6.98-5.48,5.79-10.2,15.82-6.98,26.59,4.92,16.45,26.02,29.86,59.42,37.74,32.11,7.58,57.16,5.75,72.42-5.31,0,0,11.16-8.41,15.2-19.94,1.41-4.03,4.98-6.96,9.23-7.35,10.63-.98,17.94,9.4,14.22,18.8-3.69,9.29-10.4,20.56-22.57,29.56-13.86,10.24-31.59,15.37-53,15.37-12.61,0-26.48-1.78-41.59-5.34-55.13-13.01-73.23-37.6-78.71-55.94-5.4-18.06-.37-38.14,13.12-52.4Z"/>
      <path class="cls-1" d="M421.54,197.58s-.04-.09-.06-.13l-.05-.1c-1.79-3.75-6.55-4.9-9.88-2.41-.91.68-1.82,1.36-2.75,2.04-6.82,5.06-14.53,10.77-22.14,18.92-7.17,9.2-19.37,16.33-32.15,16.33-4.89,0-9.86-1.04-14.67-3.41-4.52-2.23-13.97-6.74-16.03-7.51-19.8-6.61-42.05-9.32-66.11-8.05-5.34.28-9.79.74-13.49,1.28-8.29,1.22-12.41,10.93-7.25,17.53.04.05.08.1.12.16,0,.01.02.02.03.03,1.52,1.89,3.83,2.96,6.26,3.09,19.01.98,44.85,5.03,67.96,17.91,15.86,8.84,31.01,19.48,44.38,28.86,5.6,3.93,12.04,8.46,18.1,12.43,5.25,3.44,12.14,2.98,16.89-1.12l.1-.09c21.9-18.94,24.42-45.93,32.26-71.03,2.55-8.15,2.13-17.01-1.53-24.73Z"/>
      <path class="cls-1" d="M264.61,282.51c.17-.24.29-.48.8-.87,3.55-2.69,6.51-1.18,6.52,3.27.02,9.9.07,19.8-.05,29.7v.08c-.04,3.19,3.17,5.38,6.14,4.21,11.87-4.67,25.69-5.59,40.13,1.73,7.74,3.92,15.15,7.77,21.69,11.17,5.75,2.98,11.81,6.13,17.26,8.87,2.93,1.47,6.49.4,8.12-2.44h0c.92-1.61,1.72-3.09,2.41-4.47,2.55-5.07.81-11.23-4-14.24-7.01-4.39-14.67-9.76-23.15-15.72-12.84-9.01-27.38-19.23-42.05-27.4-17.59-9.8-37.81-13.31-53.47-14.38-8.26-.56-16.24,3.09-21.14,9.76-18.11,24.64-43.77,33.03-75.92,28.51-15.86-2.23-30.25,1.7-42.71,12.21-14.54,12.26-15.6,16.2-5.65,32.2,4.67,7.51,4.5,13.75-1.13,20.3-1.84,2.14-3.46,4.55-4.71,7.07-5.26,10.61-.82,22.02,10.5,27.37,9.4,4.44,22.53-.84,26.38-11.08,1.6-4.26,2.11-8.97,2.8-13.52,2.72-17.85,8.73-21.88,25.78-17.09,12,3.37,19.52.45,22.8-10.65,6.46-21.81,20.93-33.6,42.76-38.15,16.59-3.46,30.17-12.23,39.88-26.43Z"/>
    </g>
  </g>
</svg>