<?xml version="1.0" encoding="UTF-8"?>
<svg id="Capa_2" data-name="Capa 2" xmlns="http://www.w3.org/2000/svg" viewBox="0 0 1653.49 401.02">
  <defs>
    <style>
      .cls-1 {
        fill: #e51d4d;
      }
    </style>
  </defs>
  <g id="degrade_rojo" data-name="degrade rojo">
    <g>
      <g>
        <path class="cls-1" d="M873.2,226.35c2.21-.92,5.95,7.18,8.36,10.57,6.47,9.1,10.83,17.33,15.92,24.05,7.61,10.04,16.97,22.83,25.46,32.22,5.98,6.61,12.26,13.44,20.68,16.89,8.26,3.38,17.59,3.09,26.58,3.07,10.51-.02,21.05.43,31.53-.45,8.01-.67,18.5-.64,17.37-10.87-.78-7.06-1.83-18.13-2.48-25.2-5.19-56.48.31-113.13,2.63-169.6.22-5.33.5-12.1-3.33-16.49-3.01-3.45-8.42-4.69-12.72-5.96-5.94-1.76-12.13-3.24-18.3-3.69-9.96-.71-11.23,8.65-11.71,15.96-1.29,19.53.04,39.13-.68,58.69-.64,17.24-2.88,34.39-4.12,51.6-1.2,16.68-1.46,33.4-1.71,50.11-3.74-3.64-8.06-6.19-12.25-9.3-4.79-3.55-9.57-7.12-13.82-11.26-8.28-8.07-14.27-17.96-20.29-27.68-8.69-14.02-17.63-27.93-25.06-42.6-8.19-16.18-14.49-33.22-19.08-50.64-3.35-12.69-6.53-25.85-21.85-29.21-6.82-1.5-23.95-1.39-30.83-.31-.98.15-2.02.36-2.73,1.01-.93.85-1.07,2.2-1.14,3.43-1.34,23.53-.36,45.3,2.34,68.59,2.14,18.46,3.07,37.11,3.46,55.58.57,27.03-1.35,54.35-1.8,81.4-.14,8.09,13.39,13.25,21.98,14.8,4.8.87,9.63,1.56,14.46,2.28,5.55.83,11.57.36,14.69-4.73,2.07-3.38,2.38-7.45,2.64-11.36,1.13-17.26-4.03-37.43-5.02-58,0,0-.81-12.22.83-12.9Z"/>
        <path class="cls-1" d="M715.87,261.15c0-41.35-.16-82.71.06-124.06.06-11.18.73-22.39,1.9-33.52.51-4.89,2.41-9.83,4.69-14.36,2.76-5.49,8.59-8.16,15.21-8.52,8.35-.45,16.77-.55,25.12-.14,15.51.76,11.16,16.94,10.34,25.93-1.35,14.82-2.38,29.66-3.09,44.51-1.42,29.7-1.56,59.45-.42,89.16.41,10.7.99,21.39,1.73,32.07.43,6.26.82,12.81-1.08,18.92-2.28,7.33-6.6,9.43-13.96,12.51-15.97,6.66-33.88,9.17-51.46,9.06-19.47-.12-26.91,0-47.2,0-9.97,0-28.15-7.18-32.21-11.04-6.69-6.35-9.08-14.42-11.03-22.89-2.92-12.66-3.02-26.06-4.56-38.93-1.66-13.84-2.29-27.5-4.89-41.21-3.87-20.36-7.19-40.8-9.96-61.3-1.5-11.09-2.84-22.26-2.15-33.42.36-5.78,1.23-14.97,7.66-18.04,7.22-3.45,20.6-3.19,28.68-3.62,23.2-1.22,20.78,30.84,21.4,44.38,1,21.94,3.16,43.84,6.34,65.62,1.61,11.05,3.49,22.07,5.6,33.05,1.84,9.55,2.62,20.76,8.08,29.37,2.79,4.4,7.28,8.19,12.85,9.43,4.13.92,8.48.39,12.72-.03,5.92-.59,11.84-.9,17.78-1.08,0,0,1.85.08,1.85-1.83Z"/>
        <g>
          <path class="cls-1" d="M1561.58,210.43c-5.9.29-11.32.48-16.73.84-2.59.18-5.15.68-7.97,1.07-.42,5.39-.67,10.65-1.28,15.88-1.21,10.35-2.87,20.67-3.89,31.04-1.02,10.39-1.61,20.81-2.17,31.23-.33,6.16-.13,12.35-.43,18.51-.14,2.86-2.42,4.38-5.86,4.48-9.15.26-18.3.64-27.45.64-23.76,0-24.58-5.75-23.72-13.4,1.41-12.53,2.9-25.05,4.54-37.55,3.23-24.61,6.95-49.18,11.14-73.69,3.47-20.25,7.27-40.49,9.18-60.89.99-10.55,1.44-13.59,1.15-24.17-.27-9.77-.71-23.93,26.95-23.93,16.04,0,32.1-.13,48.14-.2,17.11-.07,20.9,20.24,22.71,30.11,2.91,15.83,5.22,31.75,8.86,47.49,6.81,29.44,11.7,58.12,16.53,87.82,2.98,18.3,6.91,36.81,7.35,55.27.07,2.84.11,5.79-1.31,8.38-2.9,5.27-20.31,4.61-26.05,3.89-8.96-1.12-9.61.18-18.33-2.02-4.32-1.09-6.25-7.93-7.14-11.47-1.23-4.89-1.74-9.91-2.69-14.85-1.21-6.31-2.54-12.61-3.83-18.91-.57-2.79-1.46-5.56-1.73-8.37-1.17-12.2-2.04-24.41-3.3-36.6-.35-3.42-1.68-6.77-2.68-10.59ZM1531.94,123.97c0,16.41,1.72,32.52,1.81,48.17,0,.98.63,2.55,1.47,2.84,5.15,1.77,23.08.83,28.35,2.42.33-.84.57-1.15.54-1.45-1.21-16.59,1.92-31.22.39-47.79-.14-1.48-2.61-3.52-4.48-4.02-2.63-.69-24.38-.17-28.08-.17Z"/>
          <path class="cls-1" d="M1264.1,117.9c0-14.82,3.52-35.37-11.56-36.28-16.24-.98-32.94-.03-49.15.46-12.07.37-23.09-.02-35.13.42-6.47.24-10.81.71-19.47,1.14-.56.31-1.52.09-2.3.11-8.27.19-13.62,3.14-12.95,10.15.12,1.2,0,2.42-.04,3.64-.46,15.12-1.33,30.24-1.3,45.36,0,25.57-.32,51.24.54,76.8.84,24.85.47,49.5,3.41,74.31.45,3.77,1.01,7.7,3.43,10.85,2.76,3.58,7.57,5.59,12.41,6.52,4.84.92,9.83.91,14.76,1.34,3.02.27,13.95.7,16.93.21,5.3-.87,6.86-4.06,7.01-8.31.34-9.87.76-19.73.85-29.6.19-20.26.17-27.55.24-47.81,0-.53.03-5.05.12-5.05,21.01-.05,34.13-.09,55.14-.14,3.04,0,6.27-.06,8.8-1.53,4.52-2.62,4.65-8.26,4.29-12.98-.53-6.97-1.06-13.93-1.59-20.9-.14-1.87-.33-3.86-1.62-5.36-2.12-2.48-6.24-2.64-9.79-2.59-11.33.19-22.65.38-33.98.57-5.82.1-5.19.2-11.01.29-2.67.04-10.43,1.46-12.65-.15-.12-.09-.22-.2-.31-.33-1.89-2.81,2.29-28.82,2.88-32.07.99-5.43,1.88-7.11,8.32-8.09,6.42-.98,6.52-1.09,13.02-.95,12.87.28,22.13,2.08,34.96.54,0,0,15.72,1.05,15.72-20.59Z"/>
          <path class="cls-1" d="M1362.81,127.63c-.47,6.63-1.18,13.24-1.72,19.86-1.76,21.81-1.56,43.69-.36,65.51.6,10.93,1.45,21.84,2.43,32.75.55,6.14-2.96,19.14,5.58,22.09,5.69,1.97,16.3.5,22.49.66,8.28.22,16.55.43,24.83.65,3.15.08,6.42.19,9.24,1.36,4.36,1.82,6.76,5.8,8.33,9.65,2.1,5.14,3.27,10.54,3.46,15.97.16,4.48-.64,9.49-4.77,12.36-2.87,2-6.78,2.54-10.49,2.92-28.81,2.92-57.96.32-86.82-2.28-20.46-1.84-29.53-21.63-28.24-34.27,1.62-15.79,2.91-31.61,3.13-47.45.39-28.06-2.56-56.04-5.14-83.99-1.32-14.34-2.57-28.69-3.21-43.07-.43-9.5,4.05-19.43,22.21-19.86,6.49-.15,20.68,1.49,27.16,1.88,9.12.55,11.7,5.02,12.01,11.91.49,10.8.67,21.58-.05,32.38-.02.33-.04.65-.07.98Z"/>
          <path class="cls-1" d="M1643.14,102.98c11.75-17.43,12.4-40.11,7.38-59.19-.81-3.1-1.83-6.23-3.9-8.84-4.06-5.13-12.24-7.46-19-5.4-1.79.55-3.55,1.43-4.52,2.85-1.21,1.78-.93,4.01-.58,6.06,3.77,21.96,11.06,43.47,17.73,64.84,0,0,.83,2.73,2.88-.31Z"/>
        </g>
      </g>
      <g>
        <path class="cls-1" d="M203.65,231.19c1.01,25.64-29.73,46.04-57.4,46.59-34.62.32-63.76-27.11-66.86-65.69-1.07-13.34,8.42-23.74,21.73-26.27,12.87-2.45,25.3,4.39,29.84,16.76,2.57,6.99,4.17,14.35,7.02,21.21,4.18,10.04,11.98,12.85,21.47,7.64,6.77-3.72,13.03-8.43,19.7-12.3,4.36-2.53,9.6-3.25,14.42-1.75s9.75,5.17,10.09,13.81Z"/>
        <path class="cls-1" d="M327.63,355.3c-6.49-3.37-13.84-7.19-21.46-11.05-10.6-5.37-20.69-.94-28.02,4.68-3.86,2.96-5.99,7.64-5.76,12.5.1,2.08.17,4.15.02,6.16-.62,8.18,3.61,9.69,10.71,7.6,15.28-4.5,30.66-8.69,45.96-13.13.03,0,.06-.02.08-.02.02,0,.04-.01.06-.02,2.59-.79,2.81-4.42.4-5.67-.66-.34-1.32-.69-2-1.04Z"/>
        <path class="cls-1" d="M301.65,19.79c-3.97-2.51-8.23,2.73-4.94,6.08,0,0,17.29,22.87,18.66,44.95.77,12.38-6.24,41.61-50.43,45.07-.35.03-.7.04-1.05.04-6.85,0-12.65-5.27-13.19-12.21-.57-7.29,4.88-13.67,12.17-14.24,25.4-1.99,25.83-14.33,26.02-19.6.21-5.9-2.28-11.94-6.82-16.55,0,0-16.24-14.27-13.22-40.15.34-2.91-1.35-5.69-4.12-6.62-2.62-.89-5.27-1.63-7.95-2.16-69.24-13.83-130.01,5.42-182.59,51.59-11.87,10.42-18.21,24.28-19.9,40.18-1.28,12.09-4.69,14.86-17.32,14.87-16.57,0-19.59,5.02-12.04,20.07,1.11,2.22,2.49,4.32,3.54,6.57,3.44,7.38,1.35,13.18-5.47,17.24-3.04,1.81-6.46,2.97-9.59,4.62-12.2,6.45-16.82,20.21-10.73,31.68,6.27,11.79,19.75,16.27,31.88,10.43,11.3-5.45,17.69-14.96,21.51-26.55,6.66-20.2,27.4-32.4,46.5-24.34,16.02,6.77,31.54,5.7,47.96,4.18,2.9-.27,5.74.9,7.61,3.14.25.3.51.59.77.88,10.56,11.42,22.27,20.5,35.57,26.28,12.65,5.49,26.74,6.79,40.27,4.09,6.3-1.26,13.52-2.1,21.71-2.53,27.44-1.44,52.99,1.72,75.98,9.41,3.95,1.32,17.7,8.08,19.25,8.84,4.87,2.4,11.95-2.38,14.36-5.62,0,0,17.41-17.53,25.37-22.72,1.81-1.18,3.55-2.45,5.14-3.91,4.2-3.87,10.8-11.01,10.8-17.62,0-13.48-6.49-26.32-7.75-39.67-1.73-18.35-12.8-28.08-25.86-40.27-29.03-29.98-72.09-55.45-72.09-55.45ZM188.68,60.81c11.86-12.53,27.49-17.97,41.8-14.53,7.11,1.71,11.5,8.86,9.79,15.97s-8.86,11.5-15.97,9.79c-4.83-1.15-11.26,1.58-16.37,6.98-5.48,5.79-10.2,15.82-6.98,26.59,4.92,16.45,26.02,29.86,59.42,37.74,32.11,7.58,57.16,5.75,72.42-5.31,0,0,11.16-8.41,15.2-19.94,1.41-4.03,4.98-6.96,9.23-7.35,10.63-.98,17.94,9.4,14.22,18.8-3.69,9.29-10.4,20.56-22.57,29.56-13.86,10.24-31.59,15.37-53,15.37-12.61,0-26.48-1.78-41.59-5.34-55.13-13.01-73.23-37.6-78.71-55.94-5.4-18.06-.37-38.14,13.12-52.4Z"/>
        <path class="cls-1" d="M421.54,197.58s-.04-.09-.06-.13l-.05-.1c-1.79-3.75-6.55-4.9-9.88-2.41-.91.68-1.82,1.36-2.75,2.04-6.82,5.06-14.53,10.77-22.14,18.92-7.17,9.2-19.37,16.33-32.15,16.33-4.89,0-9.86-1.04-14.67-3.41-4.52-2.23-13.97-6.74-16.03-7.51-19.8-6.61-42.05-9.32-66.11-8.05-5.34.28-9.79.74-13.49,1.28-8.29,1.22-12.41,10.93-7.25,17.53.04.05.08.1.12.16,0,.01.02.02.03.03,1.52,1.89,3.83,2.96,6.26,3.09,19.01.98,44.85,5.03,67.96,17.91,15.86,8.84,31.01,19.48,44.38,28.86,5.6,3.93,12.04,8.46,18.1,12.43,5.25,3.44,12.14,2.98,16.89-1.12l.1-.09c21.9-18.94,24.42-45.93,32.26-71.03,2.55-8.15,2.13-17.01-1.53-24.73Z"/>
        <path class="cls-1" d="M264.61,282.51c.17-.24.29-.48.8-.87,3.55-2.69,6.51-1.18,6.52,3.27.02,9.9.07,19.8-.05,29.7v.08c-.04,3.19,3.17,5.38,6.14,4.21,11.87-4.67,25.69-5.59,40.13,1.73,7.74,3.92,15.15,7.77,21.69,11.17,5.75,2.98,11.81,6.13,17.26,8.87,2.93,1.47,6.49.4,8.12-2.44h0c.92-1.61,1.72-3.09,2.41-4.47,2.55-5.07.81-11.23-4-14.24-7.01-4.39-14.67-9.76-23.15-15.72-12.84-9.01-27.38-19.23-42.05-27.4-17.59-9.8-37.81-13.31-53.47-14.38-8.26-.56-16.24,3.09-21.14,9.76-18.11,24.64-43.77,33.03-75.92,28.51-15.86-2.23-30.25,1.7-42.71,12.21-14.54,12.26-15.6,16.2-5.65,32.2,4.67,7.51,4.5,13.75-1.13,20.3-1.84,2.14-3.46,4.55-4.71,7.07-5.26,10.61-.82,22.02,10.5,27.37,9.4,4.44,22.53-.84,26.38-11.08,1.6-4.26,2.11-8.97,2.8-13.52,2.72-17.85,8.73-21.88,25.78-17.09,12,3.37,19.52.45,22.8-10.65,6.46-21.81,20.93-33.6,42.76-38.15,16.59-3.46,30.17-12.23,39.88-26.43Z"/>
      </g>
    </g>
  </g>
</svg>