<svg width="215" height="48" viewBox="0 0 215 48" fill="none" xmlns="http://www.w3.org/2000/svg">
<path d="M93.7334 7.76855C94.8255 7.70622 95.9227 7.69195 97.0068 7.74805C97.4231 7.76954 97.6401 7.8943 97.7656 8.02734C97.9002 8.17011 97.9913 8.38785 98.0332 8.69922C98.0751 9.01057 98.0614 9.37031 98.0254 9.75C98.0076 9.93791 97.9851 10.1239 97.9629 10.3076C97.941 10.4882 97.9197 10.6705 97.9053 10.8379C97.7267 12.9194 97.5891 15.0056 97.4941 17.0918C97.3053 21.2659 97.2881 25.446 97.4385 29.6211V29.6221C97.4927 31.1249 97.5696 32.6277 97.668 34.1279C97.7262 35.0173 97.7673 35.846 97.5439 36.6045C97.4164 37.038 97.2457 37.28 97.0283 37.4639C96.7893 37.666 96.4689 37.8212 95.9727 38.04V38.041C93.9394 38.938 91.6411 39.2816 89.3613 39.2676L86.2725 39.2607C85.3664 39.2628 84.4479 39.2676 83.1074 39.2676C82.5409 39.2676 81.6777 39.0428 80.8584 38.7295C80.4571 38.576 80.0835 38.4075 79.7822 38.248C79.4677 38.0816 79.2734 37.9467 79.1953 37.8682V37.8672L79.0547 37.7188C78.3831 36.9628 78.1092 36.0145 77.8672 34.9062C77.6805 34.0523 77.5824 33.1659 77.5059 32.2559C77.4303 31.3574 77.3744 30.4146 77.2715 29.5049V29.5039C77.0841 27.851 76.9917 26.1309 76.7383 24.4277L76.6191 23.6992C76.109 20.8554 75.669 17.9994 75.3027 15.1367C75.1043 13.5815 74.9332 12.0591 75.0225 10.5488V10.5479C75.0461 10.1444 75.0849 9.67198 75.208 9.25586C75.333 8.83355 75.5175 8.56215 75.7637 8.4375C76.1483 8.24286 76.745 8.13536 77.4355 8.07715C78.1301 8.01861 78.7879 8.01645 79.3643 7.98438C79.9935 7.94953 80.4042 8.14685 80.7012 8.46094C81.0178 8.79579 81.2408 9.30267 81.3887 9.93262C81.6136 10.8905 81.6352 11.9751 81.6504 12.8838L81.6709 13.7227C81.8035 16.8131 82.0922 19.8965 82.5156 22.9619C82.677 24.1284 82.8581 25.2923 83.0566 26.4531L83.2607 27.6133C83.3718 28.2242 83.4734 29.0306 83.6182 29.7314C83.7697 30.4648 83.9908 31.2224 84.3945 31.8955C84.8147 32.5959 85.5105 33.2341 86.4111 33.4453C87.0587 33.5974 87.7289 33.5068 88.2617 33.4502C89.0222 33.3703 89.7874 33.3278 90.5615 33.3018L90.5645 33.3027C90.5726 33.3028 90.5821 33.3021 90.5928 33.3018C90.614 33.301 90.641 33.2992 90.6719 33.2949C90.7313 33.2867 90.8186 33.2676 90.9121 33.2207C91.0089 33.1721 91.1162 33.0916 91.1963 32.9639C91.2768 32.8355 91.3105 32.6905 91.3105 32.5449L91.3086 32.5439C91.3086 26.7504 91.2881 20.9613 91.3174 15.1719C91.3232 14.0104 91.3747 12.8462 91.4648 11.6846L91.5674 10.5234C91.6269 9.92091 91.8523 9.2861 92.1426 8.67676C92.3729 8.19371 92.8374 7.8934 93.458 7.79688L93.7334 7.76855Z" fill="#FAFAFA" stroke="white"/>
<path d="M126.404 7.79492C127.166 7.85271 127.945 8.04803 128.717 8.29004V8.28906C129.026 8.38611 129.308 8.46313 129.579 8.57715C129.845 8.68866 130.039 8.81329 130.165 8.96582L130.166 8.9668C130.335 9.17182 130.433 9.45609 130.478 9.81445C130.522 10.1744 130.508 10.5581 130.493 10.9385C130.187 18.8129 129.455 26.8042 130.146 34.7568C130.232 35.7471 130.371 37.3028 130.476 38.2959V38.2969C130.505 38.5741 130.454 38.7241 130.401 38.8096C130.347 38.8969 130.253 38.9765 130.087 39.0449C129.916 39.1151 129.698 39.1621 129.438 39.1953C129.173 39.229 128.912 39.2443 128.628 39.2695C127.268 39.3897 125.918 39.3276 124.495 39.3301C123.343 39.3324 122.291 39.3606 121.358 39.0156L121.174 38.9414C120.182 38.5122 119.421 37.6506 118.615 36.709C117.51 35.4155 116.289 33.65 115.271 32.2305C114.948 31.7801 114.645 31.2751 114.308 30.707C113.973 30.144 113.608 29.525 113.171 28.874C113.105 28.775 113.024 28.6337 112.926 28.459C112.832 28.292 112.726 28.0987 112.619 27.9248C112.516 27.7567 112.393 27.5722 112.26 27.4346C112.229 27.4028 112.192 27.3675 112.148 27.333V26.9004L111.446 27.2119C111.306 27.2742 111.226 27.3784 111.188 27.4404C111.146 27.5062 111.121 27.5721 111.105 27.6221C111.073 27.7228 111.055 27.8344 111.043 27.9336C111.019 28.1368 111.012 28.3829 111.012 28.6084C111.011 28.8377 111.019 29.0625 111.025 29.2285C111.029 29.3117 111.033 29.381 111.035 29.4297C111.036 29.4541 111.037 29.474 111.038 29.4873C111.038 29.4924 111.038 29.4967 111.038 29.5H111.039C111.106 30.9656 111.313 32.4192 111.479 33.7744C111.648 35.1438 111.776 36.4132 111.704 37.5703V37.5713C111.674 38.0674 111.637 38.4724 111.49 38.8047L111.421 38.9424C111.176 39.3655 110.686 39.4721 109.987 39.3613C109.665 39.3102 109.346 39.2614 109.03 39.21L108.088 39.0449C107.56 38.9444 106.885 38.7257 106.359 38.4131C105.804 38.0827 105.578 37.7515 105.582 37.4717C105.641 33.722 105.895 29.846 105.819 26.0518C105.767 23.4559 105.645 20.827 105.358 18.2207C105.004 14.9817 104.876 11.9613 105.051 8.69727C105.053 8.65628 105.055 8.62344 105.059 8.59375C105.06 8.57835 105.063 8.56546 105.064 8.55469C105.067 8.55406 105.07 8.55339 105.073 8.55273C105.093 8.54836 105.116 8.54392 105.146 8.53906C105.559 8.47038 106.321 8.42894 107.106 8.43262C107.898 8.43633 108.643 8.48602 109.035 8.57715C109.89 8.77555 110.396 9.24956 110.754 9.88965C111.129 10.5608 111.33 11.3932 111.557 12.3027C112.173 14.7732 113.018 17.1913 114.119 19.4912C115.113 21.5697 116.313 23.5419 117.457 25.4951C118.197 26.7576 118.967 28.1059 120.006 29.2432L120.218 29.4678C120.807 30.0749 121.468 30.5956 122.098 31.0898C122.708 31.5686 123.207 31.8679 123.671 32.3467L124.512 33.2148L124.529 32.0059C124.563 29.6632 124.597 27.3338 124.755 25.0137V25.0127C124.915 22.6478 125.216 20.1871 125.301 17.7695C125.349 16.3867 125.329 15.002 125.318 13.6367C125.308 12.2664 125.306 10.9118 125.391 9.56348C125.423 9.04372 125.48 8.55439 125.646 8.21094C125.724 8.05009 125.814 7.94706 125.915 7.88477C126.012 7.82466 126.161 7.77647 126.404 7.79492Z" fill="#FAFAFA" stroke="white"/>
<path d="M204.363 7.71094C205.229 7.70743 205.782 8.22589 206.177 9.01953C206.578 9.8267 206.754 10.8118 206.876 11.5127C207.257 13.7067 207.569 15.9693 208.055 18.1875C208.954 22.2944 209.598 26.2985 210.238 30.458C210.638 33.053 211.148 35.5925 211.206 38.1357C211.216 38.5541 211.209 38.8366 211.089 39.0674C211.088 39.0685 211.076 39.0893 211.027 39.1221C210.975 39.1574 210.894 39.1969 210.781 39.2344C210.554 39.3098 210.251 39.3599 209.91 39.3867C209.231 39.4402 208.499 39.3934 208.148 39.3467H208.147C207.525 39.2642 207.173 39.2698 206.876 39.2578C206.668 39.2494 206.462 39.2329 206.144 39.1641L205.782 39.0762C205.726 39.0611 205.603 38.9703 205.463 38.6719C205.336 38.4013 205.252 38.0807 205.193 37.835C205.032 37.1591 204.979 36.5377 204.843 35.7812C204.682 34.8929 204.505 34.0056 204.334 33.126H204.335C204.296 32.9222 204.242 32.7056 204.202 32.5273C204.181 32.4331 204.163 32.3434 204.147 32.2568L204.112 32.0039C203.96 30.3194 203.841 28.5758 203.675 26.874V26.873C203.647 26.5915 203.583 26.3223 203.515 26.0703C203.5 26.015 203.484 25.9614 203.47 25.9092L203.934 25.8857L203.189 25.0986L203.186 25.0947L201.884 23.7197L202.192 24.9717C202.016 24.98 201.842 24.9895 201.669 24.998L200.574 25.0615C200.209 25.0881 199.814 25.1663 199.483 25.2139L199.086 25.2715L199.056 25.6719C199.012 26.254 198.985 26.7985 198.939 27.3389L198.888 27.8789C198.731 29.2934 198.505 30.7871 198.37 32.2354C198.234 33.7021 198.155 35.1719 198.081 36.6299C198.058 37.0733 198.055 37.5162 198.051 37.9473C198.047 38.3818 198.043 38.8048 198.023 39.2256V39.2266C198.022 39.2653 198.014 39.2846 198.011 39.292C198.007 39.2987 198.003 39.3053 197.992 39.3135C197.974 39.3279 197.927 39.3534 197.838 39.3672L197.733 39.376C196.512 39.412 195.314 39.4658 194.111 39.4658C193.342 39.4658 192.782 39.4159 192.377 39.333C191.969 39.2495 191.752 39.1389 191.636 39.043C191.453 38.8918 191.409 38.6853 191.467 38.1416C191.654 36.3892 191.85 34.6377 192.067 32.8896C192.495 29.4478 192.985 26.0123 193.541 22.585C193.999 19.7594 194.506 16.9003 194.762 14.0195C194.892 12.543 194.955 12.0909 194.915 10.5762C194.896 9.85979 194.893 9.1893 195.23 8.67578C195.537 8.21078 196.231 7.73832 197.984 7.73828C200.11 7.73828 202.242 7.72046 204.363 7.71094ZM200.809 12.8047C199.964 12.8106 199.148 12.8281 198.899 12.8281H198.399V13.3301C198.399 14.4942 198.457 15.6454 198.516 16.7695C198.574 17.8978 198.634 18.9973 198.64 20.0791C198.64 20.2304 198.682 20.3886 198.739 20.5166C198.77 20.5841 198.812 20.661 198.871 20.7324C198.927 20.8001 199.022 20.8918 199.163 20.9434V20.9443C199.405 21.0328 199.745 21.0737 200.071 21.0996C200.414 21.1267 200.808 21.1415 201.189 21.1543C201.576 21.1673 201.95 21.1783 202.271 21.2002C202.605 21.2231 202.829 21.2551 202.938 21.29L203.396 21.4346L203.56 20.9834C203.575 20.9407 203.585 20.9225 203.604 20.8779C203.611 20.8598 203.626 20.8227 203.639 20.7793C203.652 20.7315 203.665 20.6634 203.661 20.583L203.66 20.5762L203.638 20.1562C203.598 19.1838 203.651 18.2506 203.702 17.2891C203.753 16.3345 203.803 15.3533 203.744 14.3193L203.712 13.8721C203.698 13.7081 203.628 13.5716 203.567 13.4775C203.503 13.3782 203.423 13.2893 203.342 13.2148C203.187 13.0727 202.976 12.9338 202.754 12.8721H202.753C202.652 12.8442 202.519 12.833 202.412 12.8262C202.289 12.8182 202.137 12.8121 201.971 12.8086C201.637 12.8016 201.223 12.8018 200.809 12.8047Z" fill="#FAFAFA" stroke="white"/>
<path d="M146.453 15.9814C146.45 13.8739 146.564 11.7801 146.625 9.64551C146.629 9.51614 146.649 9.28341 146.629 9.07324C146.598 8.72787 146.702 8.55956 146.847 8.4502C147.005 8.33024 147.275 8.23692 147.678 8.20703L147.859 8.19824C147.861 8.19826 147.863 8.19811 147.866 8.19824C147.873 8.1985 147.881 8.19939 147.893 8.2002C147.911 8.20145 147.953 8.2047 147.991 8.20605C148.031 8.20748 148.09 8.20731 148.155 8.19824C148.183 8.19436 148.215 8.1868 148.251 8.17676C149.1 8.13074 149.598 8.08654 150.148 8.05273L150.75 8.02246C151.536 7.99131 152.291 7.98888 153.056 7.98828C153.818 7.98769 154.591 7.98881 155.399 7.96289C157.568 7.89311 159.742 7.76031 161.861 7.89648H161.862C162.221 7.91947 162.428 8.05487 162.573 8.25098C162.737 8.47202 162.85 8.81115 162.912 9.27441C162.973 9.73151 162.978 10.2576 162.966 10.8164C162.954 11.357 162.924 11.9559 162.924 12.4795V12.5615C162.906 13.8898 162.451 14.4155 162.109 14.6396C161.92 14.764 161.729 14.8207 161.584 14.8457C161.512 14.858 161.453 14.862 161.416 14.8633H161.375L161.329 14.8604L161.28 14.8672C160.472 14.9697 159.774 14.9611 159.058 14.9209C158.355 14.8814 157.584 14.806 156.724 14.7861L156.195 14.7803C156.05 14.7813 155.927 14.7863 155.803 14.7969C155.682 14.8072 155.561 14.8231 155.419 14.8447L154.907 14.9268C154.466 14.9983 154.068 15.1108 153.792 15.4199C153.595 15.6403 153.503 15.9174 153.443 16.1943L153.392 16.4688C153.351 16.7051 153.192 17.7387 153.074 18.7646C153.015 19.277 152.966 19.7973 152.947 20.2188C152.938 20.4284 152.936 20.6251 152.946 20.7891C152.951 20.8706 152.96 20.9541 152.976 21.0322C152.989 21.1008 153.016 21.2108 153.081 21.3135L153.082 21.3125C153.121 21.3753 153.173 21.4357 153.24 21.4873V21.4883C153.433 21.6359 153.676 21.674 153.836 21.6885C154.017 21.7048 154.215 21.6993 154.394 21.6875C154.574 21.6756 154.755 21.6563 154.903 21.6406C155.063 21.6237 155.168 21.6133 155.229 21.6123C155.618 21.6057 155.794 21.5987 155.969 21.5918C156.138 21.5851 156.306 21.5778 156.687 21.5713H156.688C157.437 21.5582 158.187 21.5447 158.938 21.5312C159.688 21.5178 160.439 21.5043 161.188 21.4912C161.419 21.4871 161.624 21.4933 161.796 21.5293C161.964 21.5645 162.046 21.6175 162.087 21.667V21.668C162.144 21.7385 162.17 21.8534 162.191 22.1396V22.1406C162.226 22.6286 162.262 23.1168 162.297 23.6045C162.332 24.092 162.366 24.5796 162.401 25.0674C162.424 25.3879 162.426 25.6895 162.37 25.9404C162.316 26.1813 162.22 26.332 162.07 26.4238C161.876 26.5438 161.594 26.5635 161.167 26.5635H161.166C159.775 26.5665 158.644 26.57 157.514 26.5732L153.862 26.583C153.602 26.5834 153.471 26.7697 153.448 26.8037C153.411 26.8592 153.393 26.9092 153.388 26.9258C153.374 26.9658 153.369 26.9994 153.367 27.0088C153.363 27.0345 153.361 27.0582 153.36 27.0703C153.358 27.0988 153.357 27.1331 153.355 27.165C153.353 27.2311 153.351 27.3168 153.35 27.4014C153.347 27.5691 153.347 27.7462 153.347 27.7891C153.342 29.2079 153.34 30.1724 153.336 31.1367L153.313 34.4834C153.308 35.1708 153.292 35.8576 153.271 36.5459L153.201 38.6172C153.192 38.8715 153.145 39.0187 153.084 39.1055C153.035 39.1754 152.938 39.2617 152.687 39.3057C152.549 39.3298 152.143 39.3358 151.665 39.3242C151.209 39.3132 150.759 39.2884 150.576 39.2715C149.857 39.2045 149.281 39.2132 148.673 39.0908C148.088 38.9732 147.594 38.7291 147.335 38.374V38.373C147.16 38.1341 147.078 37.8395 147.022 37.4775L146.973 37.0928C146.586 33.644 146.637 30.2354 146.524 26.7236C146.411 23.154 146.453 19.573 146.453 15.9824V15.9814Z" fill="#FAFAFA" stroke="white"/>
<path d="M171.337 7.74121C171.733 7.73133 172.389 7.78055 173.079 7.84277C173.75 7.90325 174.452 7.97594 174.89 8.00391C175.413 8.03749 175.649 8.18206 175.772 8.32812C175.891 8.46848 175.972 8.68733 176.003 9.03613L176.014 9.19434C176.077 10.6977 176.1 12.1846 176.008 13.6709C176.006 13.6973 176.004 13.7238 176.003 13.7461C176.001 13.7696 176 13.7898 175.999 13.8086L176.003 13.8096H176C175.938 14.7422 175.845 15.6351 175.772 16.5879C175.537 19.6701 175.564 22.7582 175.724 25.8291C175.804 27.3663 175.917 28.9012 176.047 30.4326C176.062 30.6054 176.05 30.84 176.033 31.1523C176.018 31.447 176 31.7945 176.019 32.1328C176.052 32.7344 176.215 33.5283 176.955 33.8887L177.111 33.9551C177.589 34.1293 178.218 34.1398 178.76 34.126C179.357 34.1107 179.851 34.0672 180.249 34.0781C180.797 34.093 181.345 34.1079 181.893 34.123L183.537 34.1689C183.919 34.1798 184.22 34.1944 184.47 34.2773L184.573 34.3174C184.961 34.4885 185.214 34.881 185.411 35.3906C185.669 36.0594 185.813 36.7612 185.837 37.4648C185.855 37.9875 185.769 38.4121 185.523 38.6748L185.408 38.7773C185.215 38.9191 184.952 38.994 184.618 39.0459L184.261 39.0918C180.504 39.4941 176.693 39.1358 172.863 38.7715C171.687 38.6593 170.834 38.0073 170.283 37.1631C169.724 36.3063 169.499 35.2829 169.573 34.5166C169.788 32.3004 169.961 30.0676 169.99 27.8281C170.042 23.8666 169.649 19.9173 169.308 16.0127C169.132 14.0041 168.968 12.0041 168.883 10.002C168.858 9.40846 168.981 8.86993 169.312 8.47852C169.635 8.09735 170.23 7.76868 171.337 7.74121Z" fill="#FAFAFA" stroke="white"/>
<path d="M211.727 0.580078C212.431 0.353845 213.288 0.623588 213.689 1.16016C213.847 1.37008 213.951 1.62162 214.038 1.91406L214.121 2.21973C214.717 4.61521 214.675 7.37653 213.516 9.58594C212.69 6.8166 211.847 4.06989 211.393 1.27148L211.392 1.27051L211.365 1.08301C211.359 1.02719 211.357 0.977421 211.358 0.931641C211.36 0.888512 211.365 0.855596 211.372 0.830078L211.396 0.772461C211.43 0.720364 211.528 0.643813 211.727 0.580078Z" fill="#FAFAFA" stroke="white"/>
<path d="M11.5166 22.7891C12.7129 22.5489 13.8805 23.2114 14.3154 24.4648C14.4544 24.865 14.5667 25.2767 14.6904 25.7109C14.8122 26.1384 14.9433 26.5844 15.1143 27.0186C15.3799 27.693 15.7974 28.2184 16.3896 28.4424C16.9888 28.6689 17.6379 28.5388 18.2549 28.1807C18.6567 27.9472 19.0392 27.6843 19.4053 27.4307C19.7763 27.1735 20.1289 26.9273 20.4912 26.7051V26.7041C20.8675 26.4728 21.3079 26.4156 21.7012 26.5449C21.9085 26.6133 22.0929 26.7224 22.2295 26.8906C22.3461 27.0343 22.4522 27.2499 22.4873 27.5859L22.4971 27.7383C22.5457 29.0628 21.8207 30.2991 20.6572 31.2344C19.4954 32.1683 17.9537 32.7506 16.5088 32.7822C12.9122 32.8184 9.79538 29.7963 9.46191 25.3994C9.36231 24.0832 10.2336 23.0472 11.5166 22.7891Z" fill="#FAFAFA" stroke="white"/>
<path d="M31.7266 42.1709C32.4556 41.5803 33.3016 41.2161 34.167 41.5811L34.3398 41.6641C35.1834 42.116 35.9989 42.5615 36.7217 42.959C35.1062 43.4516 33.444 43.9361 31.8242 44.4404C31.6493 44.495 31.5182 44.5178 31.4258 44.5195C31.3815 44.5204 31.352 44.5159 31.334 44.5117C31.3254 44.5097 31.3197 44.5072 31.3164 44.5059C31.3132 44.5045 31.3115 44.5039 31.3115 44.5039L31.3096 44.501C31.306 44.496 31.2963 44.4812 31.2861 44.4492C31.2644 44.3803 31.2469 44.2547 31.2617 44.0469V44.0459C31.2808 43.7749 31.2711 43.5029 31.2598 43.2529C31.243 42.8758 31.3788 42.52 31.6182 42.2705L31.7266 42.1709Z" fill="#FAFAFA" stroke="white"/>
<path d="M8.7168 7.15625C14.5514 1.73766 21.2545 -0.496366 28.8945 1.11719C29.1722 1.17613 29.4496 1.25761 29.7285 1.35742C29.7999 1.38325 29.8807 1.48164 29.8652 1.62305C29.682 3.28206 30.0835 4.57968 30.5361 5.46387C30.7617 5.90446 30.9993 6.2426 31.1836 6.47266C31.2758 6.58771 31.3553 6.67584 31.4131 6.7373C31.442 6.76806 31.4661 6.79238 31.4834 6.80957C31.4855 6.81161 31.4874 6.81359 31.4893 6.81543L31.6416 6.99414C31.9256 7.36378 32.0909 7.79654 32.1221 8.22266L32.127 8.43457C32.1163 8.74769 32.0955 9.12247 31.8311 9.45996C31.5905 9.76688 31.0717 10.1323 29.8906 10.2695L29.6455 10.2939C28.5232 10.3869 27.7312 11.4111 27.8135 12.5293C27.8919 13.5989 28.747 14.4512 29.8027 14.4512C29.8504 14.4512 29.9039 14.4493 29.9609 14.4443L29.9619 14.4453C32.5824 14.2282 34.1688 13.1913 35.0762 11.9502C35.8573 10.8815 36.1042 9.70334 36.1211 8.86914L36.1152 8.53418C36.031 7.11597 35.4695 5.702 34.9502 4.66602C34.6881 4.14306 34.4311 3.70498 34.2393 3.39746C34.1434 3.24373 34.0633 3.12215 34.0068 3.03809C34.0035 3.03312 34.0002 3.02814 33.9971 3.02344L34.1387 3.11816L34.1455 3.11035C34.2683 3.19064 34.4219 3.29092 34.6006 3.41113C35.1025 3.74879 35.8069 4.23643 36.6123 4.83496C38.2271 6.03497 40.2345 7.66943 41.8428 9.42578L41.8506 9.43457L41.8604 9.44336C43.3568 10.9197 44.4564 11.9601 44.6338 13.9424C44.7099 14.7894 44.9433 15.6192 45.1396 16.3848C45.3407 17.1689 45.5078 17.9004 45.5078 18.6357C45.5077 18.8849 45.3843 19.1954 45.1592 19.5342C44.9408 19.8628 44.6634 20.1636 44.4395 20.3818L44.4385 20.3828C44.3627 20.4568 44.2821 20.5275 44.1963 20.5957L43.9238 20.7959C43.4298 21.1361 42.6822 21.848 42.085 22.4424C41.7798 22.7461 41.5028 23.0295 41.3027 23.2373C41.2027 23.3412 41.1216 23.4262 41.0654 23.4854C41.0373 23.515 41.0159 23.5389 41.001 23.5547C40.9936 23.5625 40.9873 23.5682 40.9834 23.5723C40.9816 23.5742 40.9805 23.5761 40.9795 23.5771L40.9775 23.5791L40.9541 23.6035L40.9346 23.6318C40.8483 23.7534 40.6441 23.9415 40.4062 24.0635C40.1548 24.1924 40.0093 24.1788 39.9502 24.1484H39.9512C39.862 24.1019 39.4266 23.8763 38.957 23.6416C38.616 23.4712 38.2315 23.283 37.9512 23.1611L37.7109 23.0645C35.0459 22.1222 32.093 21.7383 28.9365 21.9131C28.2285 21.9523 27.5775 22.0198 26.9834 22.1172L26.4082 22.2246C25.0712 22.5074 23.6855 22.3965 22.4238 21.8799L22.1729 21.7705C20.9287 21.2 19.8016 20.3364 18.7627 19.2412L18.3232 18.7578L18.3164 18.75L18.252 18.6729H18.251C17.9387 18.2772 17.4538 18.0609 16.9512 18.1104C15.0939 18.293 13.4642 18.4006 11.7881 17.6523C9.27278 16.5294 6.66619 18.2654 5.85547 20.8662C5.44782 22.1742 4.79169 23.1725 3.67578 23.7412C2.63647 24.2709 1.49289 23.9408 0.867188 22.9287L0.749023 22.7168C0.185492 21.5961 0.604811 20.2384 1.75781 19.5938C1.91514 19.5058 2.07989 19.4312 2.27246 19.3408C2.36459 19.2976 2.46199 19.2506 2.56152 19.1992L2.86328 19.0283C3.31848 18.7414 3.66607 18.361 3.81738 17.873C3.9689 17.3843 3.89995 16.8636 3.67188 16.3447L3.56543 16.1211C3.5292 16.0498 3.49265 15.9815 3.45801 15.917L3.26562 15.5479C3.05986 15.1135 2.94254 14.783 2.89551 14.5352C2.84842 14.2869 2.88343 14.1795 2.9082 14.1357C2.92911 14.0989 2.98739 14.0271 3.19531 13.9648C3.40875 13.901 3.72546 13.8643 4.1748 13.8643C4.88799 13.8642 5.52029 13.791 5.9668 13.3887C6.41353 12.9861 6.55405 12.3623 6.62695 11.6387C6.80753 9.83974 7.4815 8.30335 8.7168 7.15625ZM26.1504 5.14648C24.3134 4.67962 22.3677 5.43223 20.9346 7.0332L20.8076 7.17578V7.18457C19.2686 9.00164 18.705 11.4993 19.3447 13.7627C20.002 16.0852 22.0972 19.0151 28.0107 20.6396L28.5947 20.793C30.332 21.2274 31.941 21.4463 33.4131 21.4463C35.7603 21.4463 37.7689 20.8868 39.3877 19.7412L39.7061 19.5039C40.989 18.5008 41.7656 17.278 42.2334 16.2041L42.416 15.7539C42.9457 14.3392 41.9175 12.6769 40.293 12.835C39.5922 12.9029 39.0375 13.4097 38.8242 14.0537C38.6256 14.6528 38.2442 15.1901 37.8945 15.5879C37.722 15.7841 37.5623 15.9406 37.4473 16.0469C37.3901 16.0996 37.3443 16.1397 37.3135 16.166C37.2981 16.1791 37.2865 16.1894 37.2793 16.1953H37.2783C35.7396 17.3737 33.1061 17.6358 29.5244 16.7412C27.6746 16.2795 26.1942 15.6628 25.1201 14.9414C24.0453 14.2194 23.4091 13.4151 23.1738 12.583C22.8694 11.5073 23.3117 10.4814 23.8525 9.87695C24.3782 9.28958 24.9264 9.1225 25.207 9.19238V9.19336C26.3058 9.4718 27.3716 8.75035 27.6211 7.65039C27.8686 6.55883 27.2388 5.42253 26.1504 5.14648Z" fill="#FAFAFA" stroke="white"/>
<path d="M47.1465 23.8994L47.1455 23.8984V23.8975L47.1387 23.8838C47.0647 23.72 46.8977 23.6963 46.7891 23.7822C46.6823 23.8666 46.5841 23.9424 46.4795 24.0254L46.4775 24.0273C45.7104 24.6296 44.8762 25.2841 44.0547 26.2119C43.1683 27.402 41.6604 28.3438 40.0381 28.3438C39.4093 28.3437 38.7673 28.2015 38.1494 27.8789L37.1484 27.3701C36.7995 27.1959 36.4901 27.0446 36.3867 27.0029C34.2249 26.2435 31.786 25.9284 29.1328 26.0762C28.5436 26.1087 28.0567 26.161 27.6572 26.2227L27.6582 26.2236C27.1125 26.3084 26.7952 27.0211 27.1611 27.5225L27.1777 27.5439C27.2537 27.6444 27.3747 27.708 27.5137 27.7158H27.5127C29.7007 27.8361 32.7092 28.3286 35.4141 29.9238C37.2324 30.9954 38.9642 32.2817 40.4697 33.3994V33.4004C41.1028 33.8706 41.8248 34.4052 42.501 34.874C42.8998 35.1506 43.42 35.1165 43.7861 34.7822L43.79 34.7783L43.7979 34.7715C44.9489 33.7187 45.6023 32.434 46.0781 31.0156C46.3167 30.3044 46.5087 29.5667 46.6982 28.8086C46.8865 28.0558 47.0736 27.2779 47.2988 26.5156C47.5548 25.648 47.5098 24.7141 47.1494 23.9082L47.1758 23.8896M47.1465 23.8994L47.1484 23.9033M47.1465 23.8994L47.1484 23.9033M47.1465 23.8994C47.1478 23.8989 47.1545 23.8956 47.1895 23.8809L47.1758 23.8896M47.1484 23.9033L47.1758 23.8896M47.1484 23.9033L47.1758 23.8896M27.0996 27.4619C27.1015 27.4635 27.1046 27.4674 27.1094 27.4717C27.1002 27.4635 27.0939 27.4577 27.0918 27.4561C27.0945 27.4582 27.0978 27.4604 27.0996 27.4619Z" fill="#FAFAFA" stroke="white"/>
<path d="M27.626 31.8984H27.627C29.358 32.0232 31.5549 32.4314 33.4482 33.5479C35.0778 34.508 36.6992 35.7119 38.1523 36.791C39.1073 37.5003 39.9834 38.1503 40.7891 38.6836H40.79C41.117 38.8995 41.2515 39.363 41.0664 39.752L41.0654 39.7539C40.9929 39.9073 40.9061 40.0758 40.8057 40.2617C40.7602 40.3449 40.6882 40.3759 40.623 40.3691L40.5615 40.3506C39.9487 40.0247 39.2678 39.6506 38.6182 39.2939L36.1641 37.958C34.3826 37.0043 32.6657 37.1246 31.2109 37.7275C31.2098 37.7262 31.2081 37.7248 31.207 37.7227C31.2049 37.7185 31.202 37.7096 31.2021 37.6953V37.6855C31.2157 36.4993 31.2103 35.3127 31.208 34.1328C31.2073 33.7951 31.101 33.3773 30.7246 33.1768C30.4515 33.0314 30.1727 33.0703 29.9385 33.1787L29.8057 33.0391L29.4609 33.5742C28.4365 35.1603 27.0138 36.1299 25.2695 36.5137C23.9698 36.7995 22.8589 37.3216 21.9727 38.1396C21.1409 38.9075 20.5317 39.9132 20.1416 41.1689L20.0664 41.4238C19.9035 42.0067 19.6661 42.2731 19.416 42.3916C19.1496 42.5178 18.7424 42.5377 18.1162 42.3516H18.1152C17.1452 42.0635 16.2804 41.967 15.623 42.4287C14.9832 42.8783 14.7198 43.7381 14.5664 44.8008C14.4932 45.3052 14.4456 45.7469 14.3281 46.1504L14.2734 46.3203C13.9288 47.29 12.7548 47.7472 11.9883 47.3643C10.9408 46.8405 10.5592 45.765 11.0322 44.7549V44.7539C11.1548 44.4916 11.3162 44.2376 11.499 44.0127C11.8655 43.5618 12.0859 43.081 12.1104 42.5518C12.1346 42.0276 11.9643 41.5198 11.6699 41.0195H11.6689C11.0941 40.0419 10.9544 39.602 11.0127 39.2695C11.0406 39.1107 11.1234 38.9311 11.3164 38.6904C11.5131 38.4453 11.8013 38.1645 12.209 37.8008C13.5044 36.6449 14.9818 36.2209 16.626 36.4648C18.5041 36.7441 20.2273 36.6298 21.7607 36.041C23.2986 35.4504 24.6122 34.3953 25.6855 32.8506C26.1415 32.1946 26.8764 31.8439 27.626 31.8984Z" fill="#FAFAFA" stroke="white"/>
</svg>
